<svg xmlns="http://www.w3.org/2000/svg" version="1.1" xmlns:xlink="http://www.w3.org/1999/xlink" xmlns:svgjs="http://svgjs.dev/svgjs" width="2000" height="1247" viewBox="0 0 2000 1247"><g transform="matrix(1,0,0,1,-1.2121212121212466,0.504858299595071)"><svg viewBox="0 0 396 247" data-background-color="#0b022d" preserveAspectRatio="xMidYMid meet" height="1247" width="2000" xmlns="http://www.w3.org/2000/svg" xmlns:xlink="http://www.w3.org/1999/xlink"><g id="tight-bounds" transform="matrix(1,0,0,1,0.2400000000000091,-0.09999999999999432)"><svg viewBox="0 0 395.52 247.2" height="247.2" width="395.52"><g><svg></svg></g><g><svg viewBox="0 0 395.52 247.2" height="247.2" width="395.52"><g transform="matrix(1,0,0,1,75.54432,98.59910116510066)"><svg viewBox="0 0 244.43135999999998 50.001797669798655" height="50.001797669798655" width="244.43135999999998"><g><svg viewBox="0 0 244.43135999999998 50.001797669798655" height="50.001797669798655" width="244.43135999999998"><g><svg viewBox="0 0 244.43135999999998 50.001797669798655" height="50.001797669798655" width="244.43135999999998"><g><svg viewBox="0 0 244.43135999999998 50.001797669798655" height="50.001797669798655" width="244.43135999999998"><g><svg viewBox="0 0 244.43135999999998 50.001797669798655" height="50.001797669798655" width="244.43135999999998"><g transform="matrix(1,0,0,1,0,0)"><svg width="244.43135999999998" viewBox="0.29999999999999893 -34.300000000000004 186.25 35.1" height="50.001797669798655" data-palette-color="#f7fff7"><svg></svg><g class="undefined-text-0" data-fill-palette-color="primary" id="text-0"><path d="M11.95-26.63h-11.65v-6.92h27.63v6.92h-11.58l1.8-1.8v28.43h-8v-28.43zM40.43 0h-8v-33.55h13.1c4.2 0 7.46 0.963 9.78 2.89 2.327 1.92 3.49 4.497 3.49 7.73v0c0 3.167-1.163 5.707-3.49 7.62-2.32 1.907-5.58 2.86-9.78 2.86v0h-5.1zM60.4 0h-10.47l-8.18-16.2h8.45zM40.43-26.63v8.98h4.2c1.98 0 3.467-0.413 4.46-1.24 0.993-0.827 1.49-1.88 1.49-3.16v0c0-1.333-0.423-2.43-1.27-3.29-0.84-0.86-2.1-1.29-3.78-1.29v0zM74.23 0h-8v-33.55h8zM95.47 0.8v0c-2.927 0-5.503-0.66-7.73-1.98-2.227-1.313-3.963-3.27-5.21-5.87-1.253-2.6-1.88-5.827-1.88-9.68v0c0-3.867 0.62-7.1 1.86-9.7 1.247-2.6 2.983-4.56 5.21-5.88 2.24-1.327 4.823-1.99 7.75-1.99v0c4.24 0 7.467 1 9.68 3 2.213 2 3.53 4.59 3.95 7.77v0l-8.5 1.48c-0.38-1.433-0.983-2.62-1.81-3.56-0.827-0.947-1.933-1.42-3.32-1.42v0c-1.227 0-2.313 0.373-3.26 1.12-0.94 0.74-1.667 1.867-2.18 3.38-0.52 1.52-0.78 3.453-0.78 5.8v0c0 2.3 0.267 4.207 0.8 5.72 0.533 1.507 1.27 2.627 2.21 3.36 0.94 0.733 2.01 1.1 3.21 1.1v0c1.72 0 3.007-0.453 3.86-1.36 0.847-0.913 1.27-2.02 1.27-3.32v0h8.45c0 2.587-0.52 4.777-1.56 6.57-1.047 1.787-2.577 3.143-4.59 4.07-2.013 0.927-4.49 1.39-7.43 1.39zM123.2-26.63h-11.65v-6.92h27.63v6.92h-11.58l1.8-1.8v28.43h-8v-28.43zM151.67 0h-8v-33.55h8zM172.92 0.8v0c-2.933 0-5.51-0.66-7.73-1.98-2.227-1.313-3.967-3.27-5.22-5.87-1.247-2.6-1.87-5.827-1.87-9.68v0c0-3.867 0.62-7.1 1.86-9.7 1.24-2.6 2.977-4.56 5.21-5.88 2.233-1.327 4.817-1.99 7.75-1.99v0c4.233 0 7.46 1 9.68 3 2.213 2 3.53 4.59 3.95 7.77v0l-8.5 1.48c-0.387-1.433-0.99-2.62-1.81-3.56-0.827-0.947-1.933-1.42-3.32-1.42v0c-1.233 0-2.32 0.373-3.26 1.12-0.94 0.74-1.67 1.867-2.19 3.38-0.513 1.52-0.77 3.453-0.77 5.8v0c0 2.3 0.267 4.207 0.8 5.72 0.533 1.507 1.27 2.627 2.21 3.36 0.947 0.733 2.017 1.1 3.21 1.1v0c1.72 0 3.003-0.453 3.85-1.36 0.853-0.913 1.28-2.02 1.28-3.32v0h8.45c0 2.587-0.52 4.777-1.56 6.57-1.04 1.787-2.57 3.143-4.59 4.07-2.02 0.927-4.497 1.39-7.43 1.39z" fill="#000000" fill-rule="nonzero" stroke="none" stroke-width="1" stroke-linecap="butt" stroke-linejoin="miter" stroke-miterlimit="10" stroke-dasharray="" stroke-dashoffset="0" font-family="none" font-weight="none" font-size="none" text-anchor="none" style="mix-blend-mode: normal" data-fill-palette-color="primary" opacity="1"></path></g></svg></g></svg></g></svg></g></svg></g></svg></g></svg></g><path d="M191.57 92.599L191.57 31.363 7.097 31.363 7.097 215.837 191.57 215.837 191.57 154.601 187.416 154.601 187.416 211.683 11.251 211.683 11.251 35.517 187.416 35.517 187.416 92.599Z" fill="#000000" stroke="transparent" data-fill-palette-color="primary"></path></svg></g><defs></defs></svg><rect width="395.52" height="247.2" fill="none" stroke="none" visibility="hidden"></rect></g></svg></g></svg>